# xmcd CD database file generated by Grip 3.2.0
# 
# Track frame offsets:
#       183
#       18438
#       30650
#       45678
#       59893
#       74063
#       90465
#       105615
#       120878
#       138198
#       150003
#       163980
#       188353
#       224583
#       239738
#       266060
#       311503
#       324703
#       338328
# 
# Disc length: 4624 seconds
# 
# Revision: 5
# Processed by: cddbd v1.5.2PL0 Copyright (c) Steve Scherf et al.
# Submitted via: Grip 3.2.0
# 
DISCID=0b120e13
DTITLE=Various Artist - Blues Legends [CD2]
DYEAR=1993
DGENRE=Blues
TTITLE0=Tommy Tucker - Hi Heel Sneakers
TTITLE1=Ike Turner - Prancin'
TTITLE2=Louisiana Red - Alabama Train
TTITLE3=Buddy Guy - Sit And Cry (The Blues)
TTITLE4=John Lee Hooker - Stomp Boogie
TTITLE5=Little Walter - Juke
TTITLE6=Louisiana Red - Whose Ol' Funky Drawers Is These?
TTITLE7=Buddy Guy and Junior Wells - Hoodoo Man
TTITLE8=Jimmy Reed - Cry Before I Go
TTITLE9=Buddy Guy - Try To Quit You Baby
TTITLE10=Lightnin' Hopkins - War Is Starting Again
TTITLE11=Little Walter - Sad Hours
TTITLE12=Albert Collins - How Blue Can You Get
TTITLE13=Louisiana Red - You're Gonna Need Me Baby
TTITLE14=Earl Hooker - Two Bugs In A Rug
TTITLE15=Buddy Guy and Junior Wells - 10 Years Ago
TTITLE16=John Lee Hooker - No Friend Around
TTITLE17=Junior Wells - Junior's Wail
TTITLE18=Earl Hooker - Hot N' Heavy
EXTD=
EXTT0=
EXTT1=
EXTT2=
EXTT3=
EXTT4=
EXTT5=
EXTT6=
EXTT7=
EXTT8=
EXTT9=
EXTT10=
EXTT11=
EXTT12=
EXTT13=
EXTT14=
EXTT15=
EXTT16=
EXTT17=
EXTT18=
PLAYORDER=
